<svg width="44" height="44" viewBox="0 0 44 44" fill="none" xmlns="http://www.w3.org/2000/svg">
<path d="M33.6634 16.3006C33.6634 16.3006 31.8759 14.8121 31.2778 14.214C30.1847 13.1209 27.7509 10.6871 20.6972 10.6871C15.8778 10.6871 12.4506 12.2271 10.5153 14.3618C8.89968 16.1424 6.39375 17.789 6.39375 17.789L5.69937 23.8974L9.32593 29.6106C9.32593 29.6106 10.2712 31.9446 13.2 32.5428C16.8369 33.2818 17.1256 31.6971 21.0994 31.7968C24.3787 31.8793 25.4719 32.9896 28.3009 32.6906C31.1884 32.3881 32.9209 29.8099 33.3678 28.9162C33.8147 28.0224 36.9944 22.1615 36.9944 22.1615L33.6634 16.3006ZM31.1781 24.444C30.7587 26.4549 30.085 27.2249 30.085 27.2249L13.1484 28.1187C13.1484 28.1187 11.9075 26.4309 11.1616 24.8393C10.4156 23.2512 10.3916 21.694 10.7628 20.1712C11.2681 18.0984 13.5816 16.359 13.5816 16.359L29.1912 16.3968C29.1912 16.3968 30.1709 17.0259 30.9306 18.7824C31.7247 20.6215 31.46 23.1103 31.1781 24.444Z" fill="url(#paint0_radial_312_3977)"/>
<path d="M22.9763 37.9741C22.9763 37.9741 26.7678 37.6751 30.2534 34.3957C35.5644 29.401 37.1525 20.7763 37.6097 17.0879C38.1597 12.6432 36.8638 8.90662 36.8638 8.90662L39.6963 7.9613C39.6963 7.9613 40.9922 11.6738 40.4422 18.071C40.0091 23.1069 37.6097 31.9963 32.6528 36.5201C28.2184 40.566 22.5844 41.1607 22.5844 41.1607L22.9763 37.9741Z" fill="#4485F6"/>
<path d="M36.9806 19.5663C36.9806 19.5663 37.6613 19.7691 38.1219 19.8825C38.8678 20.0647 40.2359 20.3844 40.3597 20.656C40.6141 21.2232 39.8544 24.4441 39.3044 24.4853C38.7544 24.5232 37.4963 24.2103 37.0219 23.8941C36.5475 23.5778 36.9806 19.5663 36.9806 19.5663Z" fill="#484D4F"/>
<path d="M27.9641 35.6503C27.9641 35.6503 27.39 35.2618 26.8984 35.6503C26.4137 36.0318 26.5891 36.6575 26.8778 37.1903C27.1666 37.7231 28.2116 39.2425 28.5209 39.5106C28.8303 39.7787 29.2909 39.7925 29.5728 39.624C30.1125 39.3009 29.9303 38.6856 29.9303 38.6856C29.9303 38.6856 30.4219 39.1222 31.0028 38.799C31.6147 38.4587 31.405 37.8262 31.405 37.8262C31.405 37.8262 32.01 38.1493 32.5359 37.7472C33.0241 37.3725 32.9037 36.8397 32.9037 36.8397C32.9037 36.8397 33.4641 37.0528 33.9659 36.5165C34.4094 36.0422 34.1344 35.499 34.1344 35.499C34.1344 35.499 34.5916 35.6675 34.9525 35.2412C35.365 34.7497 35.0659 34.2134 34.8391 33.9865C34.6122 33.7597 33.0481 32.1715 32.4122 31.9068C32.1922 31.814 31.8312 31.7968 31.5734 32.0306C31.1644 32.3984 31.4841 32.9243 31.4841 32.9243C31.4841 32.9243 30.9891 32.5978 30.5766 32.969C30.1469 33.3575 30.4459 33.9728 30.4459 33.9728C30.4459 33.9728 29.92 33.4778 29.3975 33.849C28.985 34.1447 29.2325 34.7737 29.2325 34.7737C29.2325 34.7737 28.7272 34.3372 28.2253 34.7118C27.7337 35.0797 27.9641 35.6503 27.9641 35.6503Z" fill="#1664C0"/>
<path d="M33.3334 2.76372C33.2509 3.3481 35.4956 8.37716 35.6056 8.63841C35.7844 9.06466 36.8981 10.285 38.665 9.49435C40.1741 8.8206 39.8097 7.14997 39.7444 6.90591C39.4969 5.98466 37.9672 1.21341 37.4034 1.09997C36.9325 1.00372 33.3987 2.28935 33.3334 2.76372Z" fill="#7FDAFB"/>
<path d="M18.7 36.9257C18.7 36.9257 18.7206 41.2329 18.7378 41.69C18.7584 42.1472 19.0231 42.5666 19.5559 42.5872C20.0888 42.6079 22.4709 42.5872 22.8147 42.5666C23.1584 42.546 23.4472 42.1713 23.4816 41.501C23.5194 40.7757 23.5572 36.6438 23.5572 36.6438L18.7 36.9257Z" fill="#5C727F"/>
<path d="M16.3178 34.241C16.2594 34.3166 16.4897 37.4997 21.0822 37.4413C25.6747 37.3829 25.9978 34.3338 25.96 34.1826C25.9222 34.0313 16.3728 34.1619 16.3178 34.241Z" fill="#484D4F"/>
<path d="M5.14249 18.9406C5.14249 18.9406 5.51374 16.5309 6.65842 15.4584C7.5178 14.654 8.62467 14.3309 9.89655 14.2381C11.1684 14.1418 30.4837 14.1487 31.979 14.1762C33.7253 14.2072 35.2034 15.1731 35.9494 16.084C36.8225 17.1497 37.149 19.1812 37.149 19.7209C37.149 20.2606 34.0106 16.6237 34.0106 16.6237L28.0844 16.0393L9.80374 15.7609L5.14249 18.9406Z" fill="#4383F4"/>
<path d="M11.4331 29.9166C11.4331 29.9166 12.9319 31.0028 16.1322 30.666C19.2913 30.3325 20.1644 26.84 20.1644 26.84L22.66 27.8369C22.66 27.8369 23.4506 29.8753 25.6128 30.4563C27.775 31.0372 29.9441 30.1881 29.9441 30.1881L25.1556 27.2972L22.7872 23.5125L19.5559 23.4781L17.1325 27.3797L14.5131 29.3769L11.4331 29.9166Z" fill="#000202"/>
<path d="M21.1544 24.6262C20.3328 24.6262 20.0028 26.0734 19.4769 27.1906C18.9509 28.3078 18.2291 29.6553 18.7206 30.1159C19.2122 30.5765 19.7725 30.5112 21.12 30.5422C22.5019 30.5765 23.2238 30.5078 23.5538 29.8856C23.8631 29.3012 23.2134 28.1634 22.7975 27.1562C22.3369 26.0425 21.8763 24.6262 21.1544 24.6262Z" fill="#5C727D"/>
<path opacity="0.8" d="M11.8216 27.7096L7.55906 26.4859L5.29718 21.2609L7.07437 17.4796C7.07437 17.4796 11.7803 15.7368 12.2616 15.8125C12.7428 15.8881 22.8216 15.8503 23.4162 15.8881C24.0109 15.9259 33.8284 16.0737 33.9041 16.1837C33.9797 16.2937 36.6094 16.7028 36.5337 18.889C36.4581 21.0753 36.0903 24.0384 36.0147 24.2996C35.9391 24.5609 35.2378 26.9293 34.5709 27.0771C33.9041 27.2249 30.9753 27.3728 30.9753 27.3728L25.0112 26.5134L21.1612 22.1856L17.8647 25.4821L11.8216 27.7096Z" fill="url(#paint1_linear_312_3977)"/>
<path d="M6.30438 24.8772L6.49344 23.1928C6.49344 23.1928 7.96813 25.3275 9.51157 26.0837C11.2303 26.9225 12.9938 27.2903 15.3141 26.2075C17.4281 25.2244 18.2428 22.3884 19.2156 21.4534C19.5456 21.1372 20.1163 20.6972 21.2025 20.7281C21.9313 20.7487 22.5947 21.0375 22.8938 21.3022C24.2 22.4675 24.9631 25.3894 26.51 26.2453C28.4625 27.3247 30.8034 27.3178 32.7388 26.1112C34.6775 24.9047 35.5678 23.6328 35.5678 23.6328L35.4716 26.3003L32.3881 29.4147L26.6406 28.6894L24.5438 26.4962L22.0963 23.3819C22.0963 23.3819 19.6178 23.3819 19.5559 23.4781C19.4941 23.5744 17.3009 26.8469 17.3009 26.8469L14.9806 29.0709C14.9806 29.0709 11.1994 29.4215 10.8831 29.1672C10.5669 28.9128 7.42157 27.2594 7.42157 27.2594L6.30438 24.8772Z" fill="#1565C4"/>
<path d="M35.0178 16.2593C33.8559 15.6165 32.2025 15.2968 29.9028 15.3346C27.6066 15.3725 10.9312 15.2246 9.89311 15.259C8.85499 15.2968 7.63124 15.6681 6.85436 16.2215C5.27311 17.3524 4.81936 19.5559 4.74374 22.0034C4.65093 24.9287 6.33186 30.2534 12.4094 30.2878C16.8025 30.3118 18.0366 27.3899 19.14 25.5887C19.6487 24.7603 20.0509 23.8459 21.1544 23.8768C22.3403 23.9112 22.6222 24.7568 22.9969 25.4203C24.0625 27.3212 25.1006 30.3771 29.8994 30.3496C35.2344 30.3221 37.2797 25.1659 37.3828 21.8349C37.4687 18.8374 36.3137 16.9778 35.0178 16.2593ZM35.4991 22.0034C35.3512 24.6331 33.9762 28.404 29.9784 28.5621C26.235 28.7099 25.2347 26.4859 24.6778 25.709C24.1209 24.9321 23.1309 23.3784 22.5981 22.9246C21.8556 22.2956 20.1266 22.5121 19.6075 22.959C18.9475 23.5228 18.2222 24.7259 17.4487 25.8328C16.1528 27.6856 15.3037 28.4178 12.6741 28.5278C10.0444 28.6378 7.89249 27.084 7.03999 24.5643C6.03624 21.5978 6.59655 19.0437 8.30155 17.7821C9.12655 17.1737 9.89655 16.9296 10.7112 16.8918C11.5259 16.854 29.9062 16.7818 31.9447 16.9675C33.9831 17.1531 35.6469 19.3737 35.4991 22.0034Z" fill="#81D7FF"/>
<defs>
<radialGradient id="paint0_radial_312_3977" cx="0" cy="0" r="1" gradientUnits="userSpaceOnUse" gradientTransform="translate(20.8065 5.0847) scale(25.0807)">
<stop offset="0.501" stop-color="#5C727D"/>
<stop offset="0.841" stop-color="#484D4F"/>
</radialGradient>
<linearGradient id="paint1_linear_312_3977" x1="20.8409" y1="26.3535" x2="20.9722" y2="15.8489" gradientUnits="userSpaceOnUse">
<stop offset="0.191" stop-color="#27A0E2"/>
<stop offset="0.426" stop-color="#80C7EE" stop-opacity="0.873"/>
<stop offset="0.746" stop-color="white" stop-opacity="0.7"/>
</linearGradient>
</defs>
</svg>
