<svg width="44" height="44" viewBox="0 0 44 44" fill="none" xmlns="http://www.w3.org/2000/svg">
<path d="M17.4625 25.9187C16.9125 26.3312 17.05 27.2937 17.6688 27.5C18.2875 27.775 20.4187 26.8812 23.1 31.2125C22.3437 25.85 18.425 25.1625 17.4625 25.9187Z" fill="#75D6FF"/>
<path d="M41.7313 26.2625C42.2813 26.675 42.1438 27.6375 41.525 27.8437C40.9063 28.1187 38.775 27.225 36.0938 31.5562C36.85 26.1937 40.7688 25.5062 41.7313 26.2625Z" fill="#75D6FF"/>
<path d="M41.525 19.9375C42.075 20.1437 42.2125 20.9 41.8 21.2437C41.3875 21.6562 39.4625 21.5187 38.5687 25.6437C37.675 21.175 40.5625 19.525 41.525 19.9375Z" fill="#75D6FF"/>
<path d="M37.675 14.7813C37.125 17.875 33.7563 15.5375 31.7625 13.475C29.7688 11.4125 28.325 9.55629 30.4563 7.35629C32.5875 5.15629 38.8438 4.81254 40.8375 6.80629C42.8313 8.86879 38.4313 10.7938 37.675 14.7813Z" fill="#36A7C1"/>
<path d="M37.1937 14.7125C36.3 8.8 29.15 1.375 20.0062 1.375C10.8625 1.375 1.58125 10.2437 8.31875 17.1187C8.31875 17.1187 0.1375 17.5312 3.4375 19.25C11.275 23.375 15.4688 18.0125 15.5375 17.9438C18.2875 13.2688 23.7875 13.1313 27.5 18.2875C31.2125 23.4438 31.4188 30.7312 25.4375 33.7562C22.2063 35.3375 21.725 34.375 22.0687 33.0687C21.1062 33.825 20.075 34.5125 19.25 35.0625C17.9437 33.2062 15.2625 29.9062 13.3375 29.9062C10.6562 29.9062 14.3687 36.3 14.3687 36.3C14.3687 36.3 10.725 42.625 13.4062 42.625C15.4 42.625 18.15 39.05 19.4562 37.2625C25.575 38.3625 40.2187 33.6875 37.1937 14.7125Z" fill="#38BFD6"/>
<path d="M25.5063 33.7562C31.4188 30.8 31.2812 23.4437 27.5688 18.2875C23.8562 13.1312 18.3563 13.2687 15.6063 17.9437C15.6063 17.9437 15.6063 18.0125 15.5375 18.0812C14.575 19.5937 13.2 19.8 11.9625 20.35C11.9625 20.35 11.9625 21.0375 11.0688 21.5187C9.7625 22.275 8.86875 22.825 9.69375 23.925C12.7188 28.1187 18.5625 19.8 23.7188 24.3375C27.6375 27.775 25.025 30.8 22.2063 33.0687C21.725 34.3062 22.275 35.3375 25.5063 33.7562Z" fill="#C5CCD6"/>
<path d="M26.0563 17.325C27.3625 14.4375 24.3375 13.5437 22.2062 13.5437C20.075 13.5437 18.3563 13.8187 18.3563 17.325C18.3563 20.8312 21.45 26.1937 23.5812 26.1937C25.7125 26.1937 24.3375 21.1062 26.0563 17.325Z" fill="#36A7C1"/>
<path d="M15.5375 17.9437C15.6063 20.9 12.7188 24.1312 10.7937 23.65C10.2437 23.5125 10.0375 23.1 10.1063 22.7562C10.175 22.2062 11 21.8625 11.55 21.3812C12.0312 20.9687 12.2375 20.1437 12.2375 20.1437C13.3375 19.7312 15.5375 17.9437 15.5375 17.9437Z" fill="#18637A"/>
<path d="M15.1937 20.1437C14.3687 21.9312 13.8875 22.4125 13.1312 22.1375C12.4437 21.8625 12.65 20.0062 13.4062 19.525C13.4062 19.525 14.025 19.1125 15.5375 17.9437C15.5375 17.9437 15.6063 19.1812 15.1937 20.1437Z" fill="#FF717F"/>
<path d="M14.025 16.6375C15.7336 16.6375 17.1187 15.2523 17.1187 13.5437C17.1187 11.8351 15.7336 10.45 14.025 10.45C12.3164 10.45 10.9312 11.8351 10.9312 13.5437C10.9312 15.2523 12.3164 16.6375 14.025 16.6375Z" fill="white"/>
<path d="M14.025 15.6062C15.1641 15.6062 16.0875 14.6828 16.0875 13.5437C16.0875 12.4046 15.1641 11.4812 14.025 11.4812C12.8859 11.4812 11.9625 12.4046 11.9625 13.5437C11.9625 14.6828 12.8859 15.6062 14.025 15.6062Z" fill="#3E4347"/>
<path d="M14.0937 17.9437C14.0937 17.9437 13.9563 10.5187 19.7313 12.1687L14.0937 17.9437Z" fill="#38BFD6"/>
<path d="M39.6688 33.4125C38.0187 33.4125 37.8125 32.3125 36.7125 32.3125C35.6125 32.3125 35.4062 33.4125 33.7562 33.4125C32.1062 33.4125 31.9 32.3125 30.8 32.3125C29.7 32.3125 29.4937 33.4125 27.8438 33.4125C26.1938 33.4125 25.9875 32.3125 24.8875 32.3125C23.7875 32.3125 23.5812 33.4125 21.9312 33.4125C20.2812 33.4125 20.1438 32.3125 19.0438 32.3125C17.9438 32.3125 17.7375 33.4125 16.0875 33.4125C14.4375 33.4125 14.2312 32.3125 13.1313 32.3125C12.0312 32.3125 11.825 33.4125 10.175 33.4125C8.525 33.4125 8.31875 32.3125 7.2875 32.3125C6.25625 32.3125 5.98125 33.4125 4.33125 33.4125C2.68125 33.4125 1.375 32.3125 1.375 32.3125V42.625H42.625V32.3125C42.625 32.3125 41.3188 33.4125 39.6688 33.4125Z" fill="#75D6FF"/>
<path d="M16.3625 40.8374C11.6875 41.4562 8.525 37.6749 3.64375 39.8062C7.35625 39.5312 12.9938 42.4874 16.3625 40.8374Z" fill="#42ADE2"/>
<path d="M24.3375 36.7125C19.6625 37.3312 16.4312 33.4812 11.6187 35.6812C15.4 35.475 20.9688 38.4312 24.3375 36.7125Z" fill="#42ADE2"/>
<path d="M32.3125 40.8374C27.6375 41.4562 24.475 37.6749 19.5938 39.8062C23.375 39.5312 29.0125 42.4874 32.3125 40.8374Z" fill="#42ADE2"/>
<path d="M40.3562 36.7125C35.6812 37.3312 32.45 33.4812 27.6375 35.6812C31.4187 35.475 36.9875 38.4312 40.3562 36.7125Z" fill="#42ADE2"/>
</svg>
