<svg width="160" height="56" viewBox="0 0 160 56" fill="none" xmlns="http://www.w3.org/2000/svg">
<g clip-path="url(#clip0_754_7967)">
<path d="M156.852 35.8562C158.591 35.8562 160 34.4636 160 32.7457C160 31.0278 158.591 29.6352 156.852 29.6352C155.114 29.6352 153.705 31.0278 153.705 32.7457C153.705 34.4636 155.114 35.8562 156.852 35.8562Z" fill="#2B2E4A"/>
<path d="M9.5 51C10.8807 51 12 49.8807 12 48.5C12 47.1193 10.8807 46 9.5 46C8.11929 46 7 47.1193 7 48.5C7 49.8807 8.11929 51 9.5 51Z" fill="#7145D6"/>
<path d="M21.0276 35.8607C21.0276 37.8709 20.7366 39.5585 20.1544 40.9234C19.5368 42.3589 15.5523 46.4325 14.2092 47.4381L10.0703 44.5885C10.9768 43.9782 14.342 40.6888 14.8152 40.008C15.3325 39.2615 15.6165 38.3813 15.632 37.4766V35.4833C14.2842 35.4991 12.9415 35.3177 11.6475 34.9452C10.458 34.646 9.35636 34.0744 8.43166 33.2768C7.47121 32.4292 6.74067 31.3577 6.30659 30.1597C5.79857 28.8669 5.54456 27.2871 5.54456 25.4201V12.8681C5.54456 11.3249 5.7626 10.0502 6.19868 9.04399C6.5693 8.0909 7.19264 7.25394 8.00332 6.62088C8.73738 6.02383 9.58871 5.58365 10.5036 5.32811C11.432 5.11294 12.3823 5.00286 13.3359 5H21.0276V35.8607ZM14.3868 9.15227C13.2247 9.15227 12.3713 9.48038 11.8251 10.1218C11.2761 10.8043 11.0017 11.9172 11.0017 13.4604V26.0599C10.9836 26.7683 11.0561 27.476 11.2175 28.1664C11.3072 28.6984 11.5323 29.1992 11.8716 29.6216C12.2137 29.991 12.6449 30.2687 13.1251 30.4288C13.7269 30.6155 14.3555 30.7042 14.9862 30.6912H15.5307V9.15227H14.3868Z" fill="#7145D6"/>
<path d="M39.5572 9.09886C40.8998 11.7905 41.5716 15.7935 41.5727 21.1078C41.5727 26.1389 40.8826 29.9264 39.5024 32.4704C38.0846 35.0548 36.1046 36.347 33.5622 36.347C30.8727 36.347 28.8566 35.0346 27.5141 32.4097C26.1328 29.7847 25.4422 25.9075 25.4422 20.778C25.4422 18.1531 25.6237 15.8913 25.9867 13.9927C26.3187 12.024 26.8279 10.373 27.5141 9.0398C28.2003 7.70657 29.0537 6.7009 30.0741 6.0228C31.1034 5.3383 32.3201 4.98162 33.5606 5.00073C36.2114 5.0051 38.2103 6.37115 39.5572 9.09886ZM32.3636 10.4458C32.0005 10.6962 31.71 11.2349 31.4919 12.0617C31.2363 12.8153 31.0542 13.909 30.9457 15.3429C30.8007 16.5995 30.7283 18.4304 30.7283 20.8355C30.7283 23.2405 30.8007 25.0714 30.9457 26.3281C31.0564 27.7991 31.2385 28.8578 31.4919 29.5042C31.7133 30.2589 32.0038 30.762 32.3636 31.0135C32.6665 31.2686 33.0549 31.4026 33.4527 31.3892C33.8649 31.3856 34.2656 31.2542 34.5982 31.0135C34.9302 30.7625 35.2141 30.2589 35.4698 29.5042C35.6912 28.9322 35.8909 27.8735 36.0691 26.3281C36.2141 25.0714 36.2866 23.2405 36.2866 20.8355C36.2866 18.4304 36.2147 16.6006 36.0708 15.3461C35.951 14.2433 35.7692 13.1479 35.5263 12.065C35.2341 11.2393 34.943 10.7006 34.653 10.449C34.3107 10.1818 33.8904 10.0305 33.4543 10.0176C33.051 10.0309 32.6648 10.1823 32.3619 10.4458H32.3636Z" fill="#7145D6"/>
<path d="M50.3036 30.957C50.9678 31.2131 51.6643 31.3787 52.3738 31.4492C53.0776 31.5562 53.7885 31.6111 54.5006 31.6132C55.7712 31.6132 56.7518 31.29 57.4425 30.6437C58.1685 29.9973 58.5315 29.0277 58.5315 27.7349C58.5355 26.9591 58.3285 26.1965 57.9322 25.5267C57.5268 24.8385 57.0323 24.2053 56.4613 23.6434C55.6245 22.8187 54.971 22.1904 54.5006 21.7584C53.7769 21.1415 53.1358 20.4358 52.593 19.6584C51.9702 18.8438 51.4563 17.9533 51.0639 17.0089C50.6468 15.908 50.4435 14.7392 50.4646 13.5637C50.4567 12.4263 50.6418 11.2955 51.0125 10.2186C51.3888 9.21479 51.9425 8.28493 52.6478 7.47232C53.3008 6.78985 54.1907 6.17956 55.3174 5.64145C56.446 5.19798 57.6525 4.9805 58.8669 5.00163H60.2847C60.6304 4.99418 60.9761 5.01228 61.319 5.05577L61.8171 5.10827C61.964 5.10449 62.1107 5.12274 62.2521 5.16241C62.4017 5.17998 62.5484 5.21637 62.6887 5.27068L63.1785 5.37896L63.3827 10.3827C62.815 10.189 62.2311 10.0451 61.6378 9.95286C60.9542 9.83565 60.2612 9.78073 59.5675 9.7888C58.3323 9.7888 57.4242 10.13 56.8431 10.8125C56.2255 11.5311 55.9167 12.4465 55.9167 13.5588C55.9178 14.3169 56.1247 15.0608 56.5161 15.7129C56.9398 16.4035 57.4508 17.0381 58.0368 17.6012L59.9444 19.432C60.6648 20.0719 61.3229 20.7772 61.9101 21.5385C62.5192 22.3481 63.0146 23.2355 63.3827 24.1766C63.7987 25.2778 64.002 26.4464 63.982 27.6217C63.9874 28.788 63.8196 29.9488 63.4839 31.0669C63.1536 32.0893 62.5972 33.0262 61.8553 33.8099C61.0405 34.6238 60.055 35.251 58.9682 35.6474C57.8791 36.1133 56.4983 36.3468 54.826 36.3479C54.2084 36.3479 53.4275 36.3118 52.4834 36.2396C51.8368 36.2038 51.1966 36.0937 50.5758 35.9115L50.3036 30.957Z" fill="#2B2E4A"/>
<path d="M74.1176 5.38433C75.4115 5.3606 76.7008 5.54285 77.9361 5.92408C79.0239 6.24598 80.027 6.79985 80.8746 7.5466C81.6743 8.24441 82.3071 9.10903 82.7274 10.078C83.1693 11.1163 83.3919 12.2328 83.3815 13.3591V35.8628H77.9311V13.6167C77.9311 12.3972 77.6223 11.5179 77.0047 10.9787C76.4236 10.4406 75.6245 10.1715 74.6073 10.1715H73.8984L73.4004 10.2781V35.8628H67.9599V0H73.4087V5.38433H74.1176Z" fill="#2B2E4A"/>
<path d="M91.7191 5H93.1352C94.9515 5 96.459 5.2871 97.6576 5.8613C98.8913 6.43456 99.9595 7.30502 100.764 8.39269C101.616 9.57762 102.227 10.9148 102.564 12.33C102.97 13.9686 103.171 15.6501 103.163 17.337V35.9082H99.4573C97.7762 35.9173 96.0979 35.7734 94.4435 35.4784C92.9183 35.1919 91.6648 34.6713 90.6831 33.9166C89.6648 33.1269 88.884 32.0332 88.3406 30.6355C87.7971 29.2377 87.5243 27.4249 87.5221 25.197C87.503 23.6603 87.6494 22.1259 87.9587 20.6198C88.1668 19.4967 88.6534 18.4421 89.3749 17.5503C90.0528 16.7545 90.9389 16.158 91.9366 15.8261C92.9183 15.4684 94.1718 15.2891 95.6969 15.288L97.7672 15.3963C97.7224 14.594 97.5939 13.7985 97.3837 13.0224C97.147 12.3691 96.8171 11.7526 96.4042 11.1915C96.0125 10.6895 95.5085 10.2841 94.9316 10.007C94.2985 9.72482 93.6122 9.57833 92.9177 9.57718C92.3862 9.56915 91.8555 9.62423 91.3372 9.74123C90.8703 9.81729 90.4132 9.94383 89.9742 10.1186L90.3062 5.16406L91.7191 5ZM97.7672 19.437L96.4058 19.3303C95.8843 19.3263 95.3665 19.4175 94.8784 19.5994C94.4123 19.8096 94.0157 20.1457 93.7346 20.569C93.3876 21.1265 93.1646 21.7506 93.0804 22.3998C92.9145 23.3239 92.8416 24.262 92.863 25.2003C92.8437 26.1167 92.9166 27.0328 93.0804 27.9351C93.1679 28.6011 93.4313 29.2325 93.8441 29.766C94.2357 30.252 94.7679 30.6086 95.3699 30.788C95.9875 31.0068 96.7866 31.1162 97.7672 31.1162V19.437Z" fill="#2B2E4A"/>
<path d="M108.23 17.6072C108.23 15.562 108.466 13.7852 108.939 12.277C109.447 10.6605 110.137 9.34804 111.009 8.33964C111.92 7.25998 113.078 6.4107 114.388 5.86238C115.696 5.28819 117.24 5.00109 119.02 5.00109C119.383 4.99519 119.747 5.01328 120.109 5.05523L120.545 5.10772C120.693 5.10408 120.84 5.12233 120.982 5.16186L121.148 10.0622C120.859 9.90493 120.546 9.79418 120.222 9.73412C119.842 9.69226 119.46 9.67417 119.078 9.67998C118.268 9.66112 117.465 9.82967 116.733 10.1721C116.054 10.4805 115.471 10.9639 115.045 11.5715C114.572 12.1097 114.227 12.8457 114.009 13.7797C113.779 14.7686 113.668 15.7806 113.677 16.7951V35.9159H108.23V17.6072Z" fill="#2B2E4A"/>
<path d="M124.414 13.8268C124.401 12.5711 124.569 11.3201 124.912 10.1109C125.184 9.10321 125.645 8.15496 126.271 7.31539C126.837 6.56661 127.588 5.97356 128.451 5.59279C129.359 5.19013 130.345 4.98801 131.34 5.00055C131.961 4.99909 132.581 5.05401 133.193 5.16461C133.769 5.29244 134.32 5.51067 134.826 5.81099C135.323 6.1554 135.78 6.5526 136.189 6.99548C136.64 7.54137 137.024 8.13771 137.333 8.77221C137.911 7.43898 138.691 6.46885 139.672 5.86185C140.579 5.28765 141.705 5.00055 143.051 5.00055C145.265 5.00055 147.008 5.73662 148.282 7.20875C149.481 8.71698 150.08 10.923 150.08 13.8268V35.9088H144.632V14.3698C144.632 12.8627 144.449 11.769 144.085 11.0887C143.722 10.4423 143.141 10.1191 142.342 10.1191C141.989 10.1069 141.64 10.1909 141.333 10.362C141.025 10.533 140.771 10.7844 140.599 11.0887C140.163 11.7712 139.945 12.8649 139.945 14.3698V35.9088H134.549V14.3698C134.549 12.8627 134.368 11.769 134.005 11.0887C133.64 10.4423 133.041 10.1191 132.207 10.1191C131.372 10.1191 130.754 10.4423 130.354 11.0887C129.99 11.7712 129.808 12.8649 129.809 14.3698V35.9088H124.414V13.8268Z" fill="#2B2E4A"/>
<path d="M69.9416 46.8067C69.9463 46.8114 69.9487 46.8138 69.9487 46.8138L69.9416 46.8067ZM71.6772 49.006C71.6772 49.9347 71.3319 50.6961 70.6415 51.2901C69.9797 51.8747 69.1655 52.167 68.1989 52.167C67.2609 52.167 66.4419 51.8276 65.7419 51.1487L66.1848 50.7102C66.7514 51.2666 67.4228 51.5447 68.1989 51.5447C68.9845 51.5447 69.6535 51.3113 70.2059 50.8446C70.7725 50.3685 71.0558 49.7556 71.0558 49.006C71.0558 48.0489 70.6868 47.3182 69.9487 46.8138H69.9559C69.6892 46.6912 69.4226 46.5686 69.1559 46.446C68.8941 46.3187 68.6298 46.1938 68.3631 46.0712C68.1917 45.9817 68.0227 45.9015 67.856 45.8308C67.0847 45.4584 66.699 44.9516 66.699 44.3104C66.699 43.8908 66.8514 43.5231 67.1561 43.2072C67.4751 42.9008 67.8465 42.7476 68.2703 42.7476C68.7465 42.7476 69.1536 42.9456 69.4916 43.3416L69.0274 43.7517C68.7988 43.4972 68.5465 43.3699 68.2703 43.3699C68.0037 43.3699 67.7775 43.4618 67.5918 43.6457C67.4108 43.8342 67.3204 44.0558 67.3204 44.3104C67.3204 44.7064 67.687 45.06 68.4203 45.3711C68.9821 45.6069 69.4369 45.8143 69.7845 45.9935C70.1368 46.1679 70.3844 46.3117 70.5273 46.4248C71.2939 47.0283 71.6772 47.8887 71.6772 49.006Z" fill="black"/>
<path d="M77.834 52.1669H77.2055V47.3016C77.2055 46.9009 77.0627 46.5615 76.777 46.2833C76.4961 46.0004 76.1532 45.859 75.7485 45.859C75.3438 45.859 75.0033 46.0004 74.7272 46.2833C74.4462 46.5615 74.3058 46.9009 74.3058 47.3016V52.1669H73.6772V42.8818H74.3058V45.8307C74.6962 45.4394 75.1771 45.2438 75.7485 45.2438C76.3246 45.2438 76.8151 45.4441 77.2198 45.8449C77.6293 46.2503 77.834 46.7359 77.834 47.3016V52.1669Z" fill="black"/>
<path d="M86.062 48.7726C86.062 48.0136 85.7906 47.3606 85.2478 46.8137C84.6907 46.2716 84.0289 46.0005 83.2623 46.0005C82.4861 46.0005 81.8243 46.2716 81.2767 46.8137C80.7339 47.3465 80.4625 47.9994 80.4625 48.7726C80.4625 49.5505 80.7339 50.2058 81.2767 50.7385C81.8195 51.2759 82.4814 51.5447 83.2623 51.5447C84.0336 51.5447 84.6955 51.2759 85.2478 50.7385C85.7906 50.1916 86.062 49.5363 86.062 48.7726ZM86.712 52.167C86.5739 51.9831 86.4596 51.7592 86.3691 51.4952C86.2834 51.2264 86.2144 50.9224 86.162 50.5829C86.0144 50.8092 85.8454 51.0167 85.6549 51.2052C85.4645 51.3938 85.2502 51.5565 85.0121 51.6932C84.4788 52.009 83.8955 52.167 83.2623 52.167C82.31 52.167 81.5005 51.837 80.8339 51.1769C80.1673 50.5028 79.834 49.7013 79.834 48.7726C79.834 47.8438 80.1673 47.0447 80.8339 46.3753C81.5005 45.7153 82.31 45.3853 83.2623 45.3853C84.2098 45.3853 85.0145 45.7153 85.6763 46.3753C86.3477 47.0353 86.6834 47.8344 86.6834 48.7726C86.6834 50.2482 86.9215 51.3797 87.3976 52.167H86.712Z" fill="black"/>
<path d="M92.3329 46.1349C92.1948 46.0406 92.0544 45.9723 91.9115 45.9298C91.7734 45.8827 91.6282 45.8591 91.4759 45.8591C91.0664 45.8591 90.7235 46.0006 90.4474 46.2834C90.1664 46.5616 90.026 46.901 90.026 47.3017V52.1671H89.3975V47.3017C89.3975 46.7313 89.5998 46.2457 90.0046 45.845C90.4045 45.4443 90.895 45.2439 91.4759 45.2439C91.8996 45.2439 92.302 45.3712 92.6829 45.6258L92.3329 46.1349Z" fill="black"/>
<path d="M102.368 52.1671H101.74V47.3017C101.74 46.901 101.597 46.5616 101.311 46.2834C101.03 46.0006 100.69 45.8591 100.29 45.8591C99.8803 45.8591 99.5375 46.0006 99.2613 46.2834C98.9804 46.5616 98.8399 46.901 98.8399 47.3017V52.1671H98.2114V47.3017C98.2114 46.901 98.0685 46.5616 97.7828 46.2834C97.5019 46.0006 97.1591 45.8591 96.7544 45.8591C96.3496 45.8591 96.0092 46.0006 95.733 46.2834C95.4521 46.5616 95.3116 46.901 95.3116 47.3017V52.1671H94.6831V47.3017C94.6831 46.7313 94.8855 46.2457 95.2902 45.845C95.6949 45.4443 96.183 45.2439 96.7544 45.2439C97.54 45.2439 98.1304 45.5692 98.5256 46.2198C98.9208 45.5692 99.5089 45.2439 100.29 45.2439C100.861 45.2439 101.349 45.4443 101.754 45.845C102.163 46.2504 102.368 46.736 102.368 47.3017V52.1671Z" fill="black"/>
<path d="M107.997 48.8504L112.539 46.6157C112.03 46.2056 111.449 46.0005 110.796 46.0005C110.025 46.0005 109.361 46.2716 108.804 46.8137C108.266 47.3559 107.997 48.0088 107.997 48.7726V48.8504ZM113.696 50.5688C113.001 51.6342 112.034 52.167 110.796 52.167C109.844 52.167 109.037 51.837 108.375 51.1769C107.704 50.5122 107.368 49.7108 107.368 48.7726C107.368 47.8344 107.704 47.0353 108.375 46.3753C109.037 45.7153 109.844 45.3853 110.796 45.3853C111.892 45.3853 112.799 45.8331 113.518 46.7289L113.489 46.8137L108.082 49.4939C108.24 50.0832 108.566 50.5688 109.061 50.9507C109.313 51.1534 109.582 51.3042 109.868 51.4032C110.158 51.4975 110.468 51.5447 110.796 51.5447C111.863 51.5447 112.677 51.0685 113.239 50.1162L113.696 50.5688Z" fill="black"/>
<path d="M116.31 52.1669H115.696V42.8818H116.31V52.1669Z" fill="black"/>
<path d="M120.496 50.4627C120.496 50.9247 120.327 51.3278 119.989 51.672C119.646 52.002 119.222 52.167 118.717 52.167V51.5447C119.055 51.5447 119.332 51.4386 119.546 51.2264C119.76 51.0237 119.867 50.7691 119.867 50.4627C119.867 50.2694 119.836 50.0832 119.774 49.904C119.713 49.7249 119.613 49.5505 119.474 49.3807C119.351 49.2299 119.225 49.079 119.096 48.9282C118.972 48.7773 118.846 48.6264 118.717 48.4756C118.446 48.0748 118.31 47.6128 118.31 47.0895C118.31 46.6275 118.477 46.2268 118.81 45.8873C119.148 45.5526 119.574 45.3853 120.089 45.3853V46.0005C119.751 46.0005 119.472 46.1089 119.253 46.3258C119.039 46.5332 118.932 46.7878 118.932 47.0895C118.932 47.594 119.186 48.1267 119.696 48.6877C120.229 49.2865 120.496 49.8781 120.496 50.4627Z" fill="black"/>
<path d="M126.653 52.1669H126.024V47.3016C126.024 46.9009 125.881 46.5615 125.596 46.2833C125.315 46.0004 124.972 45.859 124.567 45.859C124.162 45.859 123.822 46.0004 123.546 46.2833C123.265 46.5615 123.124 46.9009 123.124 47.3016V52.1669H122.496V42.8818H123.124V45.8307C123.515 45.4394 123.996 45.2438 124.567 45.2438C125.143 45.2438 125.634 45.4441 126.038 45.8449C126.448 46.2503 126.653 46.7359 126.653 47.3016V52.1669Z" fill="black"/>
<path d="M129.281 48.8504L133.824 46.6157C133.314 46.2056 132.733 46.0005 132.081 46.0005C131.31 46.0005 130.645 46.2716 130.088 46.8137C129.55 47.3559 129.281 48.0088 129.281 48.7726V48.8504ZM134.981 50.5688C134.285 51.6342 133.319 52.167 132.081 52.167C131.129 52.167 130.321 51.837 129.66 51.1769C128.988 50.5122 128.653 49.7108 128.653 48.7726C128.653 47.8344 128.988 47.0353 129.66 46.3753C130.321 45.7153 131.129 45.3853 132.081 45.3853C133.176 45.3853 134.083 45.8331 134.802 46.7289L134.773 46.8137L129.367 49.4939C129.524 50.0832 129.85 50.5688 130.345 50.9507C130.598 51.1534 130.867 51.3042 131.152 51.4032C131.443 51.4975 131.752 51.5447 132.081 51.5447C133.147 51.5447 133.962 51.0685 134.524 50.1162L134.981 50.5688Z" fill="black"/>
<path d="M137.716 43.2425C137.716 43.4924 137.593 43.6173 137.345 43.6173C137.102 43.6173 136.981 43.4924 136.981 43.2425C136.981 43.0021 137.102 42.8818 137.345 42.8818C137.593 42.8818 137.716 43.0021 137.716 43.2425ZM137.652 52.1669H137.031V45.3852H137.652V52.1669Z" fill="black"/>
<path d="M140.331 47.2309L142.209 45.3852H143.066L141.03 47.4077L143.452 52.1669H142.752L140.331 47.4077V52.1669H139.716V42.8818H140.331V47.2309Z" fill="black"/>
<path d="M149.608 52.1669H148.98V47.3016C148.98 46.9009 148.837 46.5615 148.551 46.2833C148.27 46.0004 147.928 45.859 147.523 45.859C147.118 45.859 146.778 46.0004 146.502 46.2833C146.221 46.5615 146.08 46.9009 146.08 47.3016V52.1669H145.452V42.8818H146.08V45.8307C146.471 45.4394 146.952 45.2438 147.523 45.2438C148.099 45.2438 148.589 45.4441 148.994 45.8449C149.404 46.2503 149.608 46.7359 149.608 47.3016V52.1669Z" fill="black"/>
</g>
<defs>
<clipPath id="clip0_754_7967">
<rect width="160" height="56" fill="white"/>
</clipPath>
</defs>
</svg>
