<svg width="44" height="44" viewBox="0 0 44 44" fill="none" xmlns="http://www.w3.org/2000/svg">
<g clip-path="url(#clip0_308_4305)">
<path d="M22 43.8777C34.1503 43.8777 44 40.9447 44 37.3266C44 33.7085 34.1503 30.7755 22 30.7755C9.84974 30.7755 0 33.7085 0 37.3266C0 40.9447 9.84974 43.8777 22 43.8777Z" fill="#F5C876"/>
<path d="M41.3258 34.8798C41.3258 36.8549 38.2702 38.0417 23.6256 38.0417C10.2728 38.0417 6.98866 36.8549 6.98866 34.8798C6.98866 32.9047 13.9346 31.3036 23.6256 31.3036C33.3166 31.3036 41.3258 32.9047 41.3258 34.8798Z" fill="#338AF3"/>
<path d="M8.55556 34.5277C8.55556 33.3055 9.77778 28.4166 22 28.4166C36.6667 28.4166 40.3333 33.3055 40.3333 34.5277C40.3333 35.75 40.3333 36.9722 23.2222 36.9722C8.55556 36.9722 8.55556 35.75 8.55556 34.5277Z" fill="#FFAC3F"/>
<path d="M8.55555 13.7501C11.9306 13.7501 14.6667 11.014 14.6667 7.63894C14.6667 4.26387 11.9306 1.52783 8.55555 1.52783C5.18048 1.52783 2.44444 4.26387 2.44444 7.63894C2.44444 11.014 5.18048 13.7501 8.55555 13.7501Z" fill="#FFC840"/>
<path d="M8.55556 12.5278C11.2556 12.5278 13.4444 10.3389 13.4444 7.63889C13.4444 4.93883 11.2556 2.75 8.55556 2.75C5.8555 2.75 3.66667 4.93883 3.66667 7.63889C3.66667 10.3389 5.8555 12.5278 8.55556 12.5278Z" fill="#FFA31D"/>
<path d="M32.9377 17.6819C32.8424 16.2573 32.6282 14.8432 32.2972 13.4543C31.9872 12.1387 31.5782 10.8484 31.0738 9.5945C30.613 8.45906 30.25 7.81006 30.25 7.81006L27.093 8.21706C27.093 8.21706 27.4572 8.97728 27.852 10.4672C28.0121 11.0722 28.1759 11.7994 28.3238 12.6476C28.5311 13.8398 28.6711 15.0428 28.743 16.2507C28.7723 16.7029 28.7931 17.1747 28.8078 17.6661C28.8127 17.8445 28.8212 18.0168 28.8237 18.2002C28.8322 18.7734 28.7919 19.3564 28.721 19.9382C28.6562 20.4625 28.5621 20.9844 28.4484 21.5014C28.2877 22.2314 28.0924 22.9533 27.863 23.6647C27.6809 24.2269 27.4866 24.7659 27.291 25.2732C27.0211 25.9679 26.733 26.6555 26.4269 27.3351C25.9893 28.3104 25.6667 28.9606 25.6667 29.0963C25.6667 29.5253 25.9722 30.3271 28.1111 30.8612C31.4551 31.6972 31.7778 30.3185 31.7778 30.3185C31.7778 30.3185 31.9904 29.6732 32.2373 28.4033C32.3596 27.7763 32.4891 27.0014 32.6077 26.0627C32.6786 25.5017 32.7446 24.8845 32.8008 24.2135C32.9205 22.7996 32.9845 21.3815 32.9927 19.9626C32.9951 19.7475 33 19.5397 33 19.3185C33 18.7575 32.9743 18.2148 32.9377 17.6819Z" fill="#C1694F"/>
<path d="M29.7293 26.1091C28.5034 25.8953 27.7212 25.5384 27.2922 25.2707C27.0223 25.9655 26.7342 26.653 26.4281 27.3326C27.2287 27.7677 28.2456 28.1148 29.348 28.3055C29.9626 28.414 30.5853 28.4696 31.2094 28.4717C31.5712 28.4717 31.911 28.4436 32.2373 28.402C32.3596 27.775 32.4891 27.0001 32.6077 26.0615C32.219 26.1996 31.2547 26.3756 29.7293 26.1091ZM30.6558 22.0245C29.7 21.9304 28.9654 21.7201 28.4497 21.4989C28.289 22.2289 28.0936 22.9508 27.8642 23.6623C28.6936 23.9662 29.5588 24.1617 30.4382 24.244C30.8134 24.2807 31.185 24.299 31.548 24.299C31.9868 24.299 32.4036 24.2648 32.802 24.2123C32.8619 23.5131 32.9108 22.7554 32.9462 21.9353C32.3962 22.055 31.6262 22.121 30.6558 22.0245ZM30.9259 20.1618C31.6446 20.1618 32.3498 20.0897 32.9939 19.9626C32.9951 19.7475 33 19.5397 33 19.3185C33 18.7587 32.9743 18.216 32.9377 17.6819C32.4757 17.8029 31.8144 17.919 30.8819 17.9325C29.9347 17.9288 29.2686 17.7968 28.8066 17.6648C28.8114 17.8433 28.82 18.0156 28.8224 18.1989C28.831 18.7721 28.7907 19.3551 28.7198 19.9369C29.4275 20.0837 30.1481 20.159 30.8709 20.1618H30.9259ZM30.7083 16.1615C31.3949 16.0577 32.0695 15.8866 32.7226 15.6506C32.6121 14.9129 32.4706 14.1801 32.2984 13.4543C31.6863 13.7001 31.0458 13.8681 30.3918 13.9541C29.7765 14.0493 29.1521 14.0718 28.5316 14.0214C28.6196 14.7034 28.6917 15.4477 28.743 16.2495C28.8762 16.2544 28.996 16.2751 29.1329 16.2751C29.6462 16.2751 30.1803 16.2373 30.7083 16.1615ZM31.8193 11.6906C31.6006 10.9817 31.3518 10.2823 31.0738 9.59448C30.588 9.83589 30.0795 10.0287 29.5558 10.1701C28.9997 10.3297 28.4281 10.4293 27.8508 10.4671C28.0109 11.0721 28.1747 11.7994 28.3226 12.6476C28.9407 12.5904 29.5528 12.4805 30.1522 12.3188C30.7242 12.1554 31.2818 11.9453 31.8193 11.6906Z" fill="#D99E82"/>
<path d="M42.2266 3.59699C42.1874 3.54566 38.313 -1.63779 33.2884 0.635547C31.031 1.6561 29.5753 3.32444 29.0486 5.47921C28.0659 4.10421 26.5723 3.23155 24.5948 2.87955C19.1913 1.91644 15.9268 7.91877 15.895 7.97866C15.8714 8.02117 15.8631 8.07047 15.8715 8.11836C15.8799 8.16624 15.9044 8.20982 15.941 8.24182C15.9775 8.27383 16.024 8.29234 16.0726 8.29427C16.1211 8.29621 16.1689 8.28144 16.2079 8.25244C16.2323 8.2341 18.6976 6.50832 22.803 7.24044C25.2068 7.6622 27.597 8.15825 29.9701 8.72788C30.0075 8.73703 30.0467 8.73609 30.0837 8.72513C30.1206 8.71418 30.154 8.69362 30.1803 8.66555C30.2072 8.63621 32.9951 5.64055 35.5581 4.48188C39.3519 2.76588 41.9393 3.90499 41.9626 3.91721C42.0056 3.93657 42.0538 3.94125 42.0997 3.93053C42.1456 3.91981 42.1868 3.89428 42.2168 3.85788C42.2468 3.82148 42.264 3.77623 42.2658 3.72909C42.2675 3.68195 42.2538 3.63553 42.2266 3.59699Z" fill="#44851B"/>
<path d="M38.0465 6.60117C34.2161 4.5784 31.2388 5.58551 29.3896 6.81384C27.1737 6.38484 23.0328 6.37751 19.5238 10.8765C15.2154 16.3985 18.9945 23.2845 19.0324 23.3542C19.0703 23.4226 19.1424 23.4629 19.2194 23.4629L19.2451 23.4617C19.2872 23.4564 19.3267 23.4387 19.3587 23.4108C19.3907 23.383 19.4137 23.3462 19.4248 23.3053C19.4382 23.2576 20.7656 18.4567 24.1218 14.4197C25.9563 12.2136 28.1466 10.1737 29.6878 8.83051C31.24 9.0884 33.5207 9.65917 35.761 10.9107C40.128 13.3527 42.1312 17.4851 42.1508 17.5266C42.1899 17.6073 42.2742 17.6635 42.3671 17.6476C42.4111 17.6431 42.4526 17.6248 42.4858 17.5954C42.5189 17.5661 42.5419 17.527 42.5517 17.4838C42.5688 17.4068 44.253 9.87917 38.0465 6.60117Z" fill="#71B249"/>
</g>
<defs>
<clipPath id="clip0_308_4305">
<rect width="44" height="44" fill="white"/>
</clipPath>
</defs>
</svg>
