<svg width="57" height="57" viewBox="0 0 57 57" fill="none" xmlns="http://www.w3.org/2000/svg">
<g clip-path="url(#clip0_323_3727)">
<path d="M20.1868 20.7815H13.0619C12.4062 20.7815 11.8747 20.2509 11.8747 19.5934V16.031C11.8747 15.377 12.4061 14.8447 13.0619 14.8447H17.8125C18.209 14.8447 18.5804 15.043 18.8005 15.3735L21.1749 18.9359C21.4185 19.2995 21.4411 19.7691 21.234 20.1553C21.0279 20.5415 20.6252 20.7815 20.1868 20.7815Z" fill="#475569"/>
<path d="M35.4124 23.6412L33.125 19.0628C32.9233 18.661 32.5127 18.4071 32.0623 18.4071H15.4372H10.6875C10.0317 18.4071 9.49951 18.9394 9.49951 19.5934C9.49951 20.2509 10.0318 20.7815 10.6875 20.7815H13.989L11.8982 31.2349L14.2265 31.7011L40.723 32.31L42.4016 30.6296L35.4124 23.6412Z" fill="#CBD5E1"/>
<path d="M53.4368 26.7184H10.6875C10.0317 26.7184 9.49951 27.2506 9.49951 27.9065V31.4681C9.49951 32.1256 10.0318 32.658 10.6875 32.658C11.3432 32.658 11.8747 32.1257 11.8747 31.4681V29.0946H14.25V31.4681C14.25 32.1256 14.7814 32.658 15.4372 32.658C16.0929 32.658 16.6244 32.1257 16.6244 31.4681V29.0946H18.9996V31.4681C18.9996 32.1256 19.531 32.658 20.1868 32.658C20.8426 32.658 21.3748 32.1257 21.3748 31.4681V29.0946H23.7492V31.4681C23.7492 32.1256 24.2814 32.658 24.9372 32.658C25.5929 32.658 26.1244 32.1257 26.1244 31.4681V29.0946H28.4995V31.4681C28.4995 32.1256 29.031 32.658 29.6869 32.658C30.3435 32.658 30.8741 32.1257 30.8741 31.4681V29.0946H33.2501V31.4681C33.2501 32.1256 33.7807 32.658 34.4365 32.658C35.0922 32.658 35.6244 32.1257 35.6244 31.4681V29.0946H37.9988V31.4681C37.9988 32.1256 38.5311 32.658 39.1869 32.658C39.8428 32.658 40.375 32.1257 40.375 31.4681V29.0946H42.7494V31.4681C42.7494 32.1256 43.2817 32.658 43.9374 32.658C44.5933 32.658 45.1237 32.1257 45.1237 31.4681V29.0946H47.4998V31.4681C47.4998 32.1256 48.0304 32.658 48.6861 32.658C49.3418 32.658 49.8742 32.1257 49.8742 31.4681V29.0946H52.2486V31.4681C52.2486 32.1256 52.7809 32.658 53.4367 32.658C54.0925 32.658 54.6248 32.1257 54.6248 31.4681V27.9065C54.6249 27.2506 54.0927 26.7184 53.4368 26.7184Z" fill="#434A54"/>
<path d="M56.9331 31.0749C56.7661 30.6017 56.3156 30.2808 55.8111 30.2808H5.93712C5.48746 30.2808 5.07611 30.5356 4.87516 30.9392L0.125456 40.4367C-0.0589039 40.8054 -0.0389761 41.2438 0.177668 41.5917C0.393422 41.9431 0.776057 42.1552 1.18741 42.1552H43.9374C44.2071 42.1552 44.468 42.0648 44.6784 41.8979L56.5538 32.3969C56.947 32.0803 57.1001 31.5515 56.9331 31.0749Z" fill="#E6E9ED"/>
<path d="M0.453439 39.7827L0.125578 40.4368C-0.0587818 40.8055 -0.0388541 41.2439 0.17779 41.5918C0.393544 41.9431 0.776179 42.1553 1.18754 42.1553H43.9375C44.2072 42.1553 44.4681 42.0649 44.6785 41.8979L47.3225 39.7827H0.453439Z" fill="#434A54"/>
<path d="M13.989 20.7815L13.4168 23.6412H35.4124L33.9844 20.7815H13.989Z" fill="#00BEFF"/>
<path d="M21.3745 20.7816H18.9993V23.6413H21.3745V20.7816Z" fill="#3BAFDA"/>
<path d="M26.1248 20.7816H23.7496V23.6413H26.1248V20.7816Z" fill="#3BAFDA"/>
</g>
<defs>
<clipPath id="clip0_323_3727">
<rect width="57" height="57" fill="white"/>
</clipPath>
</defs>
</svg>
